<svg xmlns="http://www.w3.org/2000/svg" width="175.75" height="32.33" viewBox="0 0 175.75 32.33"><defs><style>.a{fill:#fff;fill-rule:evenodd;}</style></defs><title>exxonmobil-logo</title><path class="a" d="M183.94,31.19l.35-.92h.34v1.25h-.22v-1h0l-.39,1h-.15l-.39-1h0v1h-.22V30.27h.34l.36.92Zm-.92-.74h-.39v1.07h-.22V30.45H182v-.18h1v.18Z" transform="translate(-8.89 -8.21)"/><path class="a" d="M76,14.46h4.74v1.62a7.38,7.38,0,0,1,5.19-2c3.57,0,6.41,2.64,6.41,6.78V31.58h-5V22.17c0-2.31-1.12-3.67-3.16-3.67S81,19.79,81,22.17v9.41H76V14.46Z" transform="translate(-8.89 -8.21)"/><path class="a" d="M128.63,23a4.23,4.23,0,1,1,4.23,4.31A4.2,4.2,0,0,1,128.63,23Zm-4.94,0a9.14,9.14,0,1,0,9.13-9,9,9,0,0,0-9.13,9Z" transform="translate(-8.89 -8.21)"/><path class="a" d="M59.89,23a4.23,4.23,0,1,1,4.23,4.31A4.2,4.2,0,0,1,59.89,23ZM55,23a9.14,9.14,0,1,0,9.13-9A9,9,0,0,0,55,23Z" transform="translate(-8.89 -8.21)"/><path class="a" d="M166.23,14.46h5.07V31.58h-5.07V14.46Zm0-6.25h5.07v4.36h-5.07V8.21Z" transform="translate(-8.89 -8.21)"/><polygon class="a" points="166.32 0 171.4 0 171.4 23.37 166.32 23.37 166.32 0 166.32 0"/><path class="a" d="M158.14,23a4.28,4.28,0,1,1-4.27-4.27A4.22,4.22,0,0,1,158.14,23Zm-8.44,8.57.05-1.32A7.68,7.68,0,0,0,155,32c4.32,0,8.32-3.87,8.32-8.95s-3.76-9-8.26-9a7.58,7.58,0,0,0-5.26,1.75V8.21h-4.87V31.58Z" transform="translate(-8.89 -8.21)"/><polygon class="a" points="16.56 23.37 24.54 13.38 17.48 6.25 24.49 6.25 27.62 9.48 33.38 2.06 39.26 2.06 30.82 12.7 34.1 15.99 41.69 6.25 47.58 6.25 37.31 19.23 50.35 32.33 43.24 32.33 34.17 23.1 29.35 29.35 23.46 29.35 30.99 19.92 27.7 16.59 22.43 23.37 16.56 23.37 16.56 23.37"/><polygon class="a" points="0 0 15.39 0 15.39 4.36 5.24 4.36 5.24 9.2 14.94 9.2 14.94 13.43 5.24 13.43 5.24 19.01 15.39 19.01 15.39 23.37 0 23.37 0 0 0 0"/><polygon class="a" points="87.46 0 95.74 0 99.64 17.06 99.82 17.06 103.83 0 111.87 0 111.87 23.37 106.94 23.37 106.94 5.72 106.72 5.72 102.38 23.37 96.85 23.37 92.61 5.72 92.39 5.72 92.39 23.37 87.46 23.37 87.46 0 87.46 0"/></svg>