<svg xmlns="http://www.w3.org/2000/svg" width="1257" height="274" viewBox="0 0 1257 274"><defs><style>.a{fill:#fff;}</style></defs><title>viz-logo</title><path class="a" d="M191.8,145.6h36.9V270.5H191.8V145.6Z"/><path class="a" d="M361.8,148.1l-55.1,90.5h55.1v31.9H253.6v-4.2l55.9-92h-52V143.9H361.8v4.2Z"/><path class="a" d="M478,84.6c35.5,0,70.7,19.3,81.6,57.6H538.4C527.2,117.3,504.6,105,478,105c-42.2-.8-70.7,31.1-70.7,73.8,0,41.7,28.2,73.8,70.4,73.8,28.3,0,52-14.3,61.8-40.8h21.2c-10.6,41.4-45.8,60.9-82.7,60.9-51.1,0-93.1-36.3-93.1-93.9,0-57.8,41.1-95,93.1-94.2Z"/><path class="a" d="M627,272.7c-23.5,0-44.7-13.7-45.6-39.1-.8-28.8,22.9-43.9,49.2-43.9,14.6,0,31,3.4,43.6,10.6V185c0-21.3-22.6-27.1-39.9-27.1-14.6,0-28.6,2.7-39.5,9.2l-3.3-15.7c12.3-6.4,29.1-10,45.8-10,28.5,0,56.2,10.9,55.4,44.1v52.8c0,14-.9,22.1,14.8,19.9l.3,13.4c-21,3.4-31.1-.6-31.1-23.8-9.2,17.7-30.7,24.9-49.7,24.9m46.9-57c-11.4-6.4-27.1-10.3-39.9-10.3-16.8,0-33,9.2-32.4,27.4.8,15.9,14.8,22.3,28.7,22.3,16.5,0,39.2-8.4,43.4-27.4v-12Z"/><path class="a" d="M795.8,139.7a48.67,48.67,0,0,1,29.6,9.5l-5,17.3a48.53,48.53,0,0,0-26.8-8.4c-18.2,0-35,13.7-35,33.6v78.8H738.5v-97c0-11.5-.3-18.7-15.4-17.3l-.2-13.7c19.5-3.4,33.5-1.4,34.3,18.1,7.3-15.3,21.8-20.9,38.6-20.9Z"/><path class="a" d="M957.1,209.3H856.5c-1.4,29,21.8,46.9,50.3,46.9,14.5,0,28.2-3,42.7-9.2l3.1,15.4c-15.1,7-31,10.9-46.4,10.9-41.9,0-71.8-26.6-70.4-69.6,1.4-40,30.2-62.9,64.8-62.9,43.3.6,63.7,26.8,56.5,68.5m-99.8-15.7h82.4c1.4-24-16.2-36.3-38.8-36.3-23.2,0-40.3,13.4-43.6,36.3Z"/><path class="a" d="M1102.7,209.3H1002.1c-1.4,29,21.8,46.9,50.3,46.9,14.5,0,28.2-3,42.7-9.2l3.1,15.4c-15.1,7-31,10.9-46.4,10.9-41.9,0-71.8-26.6-70.4-69.6,1.4-40,30.2-62.9,64.8-62.9,43.3.6,63.5,26.8,56.5,68.5m-99.8-15.7h82.5c1.4-24-16.3-36.3-38.9-36.3-23.2,0-40.2,13.4-43.6,36.3Z"/><path class="a" d="M1196.6,139.7a48.67,48.67,0,0,1,29.6,9.5l-5,17.3a48.53,48.53,0,0,0-26.8-8.4c-18.2,0-35,13.7-35,33.6v78.8h-20.1v-97c0-11.5-.3-18.7-15.4-17.3l-.3-13.7c19.6-3.4,33.6-1.4,34.4,18.1,7.3-15.3,21.5-20.9,38.6-20.9Z"/><path class="a" d="M107.4,172.7,56.5,77.6H4L107.4,270.5,210.8,77.6H158.3l-50.9,95.1Z"/><path class="a" d="M108.8,77.6a37.7,37.7,0,1,1,37.7-37.7A37.86,37.86,0,0,1,108.8,77.6Z"/></svg>